<svg width="32" height="35" viewBox="0 0 32 35" fill="none" xmlns="http://www.w3.org/2000/svg">
<line x1="4.5" y1="14.8032" x2="4.5" y2="33.0746" stroke="#0035BC" stroke-width="3" stroke-linecap="round"/>
<line x1="3.50003" y1="34.5" x2="23.7715" y2="34.5" stroke="#8C8C8C" stroke-linecap="round"/>
<path d="M1.0622 2.72727H2.07072L4.08777 6.12216H4.173L6.19004 2.72727H7.19856L4.57072 7.00284V10H3.69004V7.00284L1.0622 2.72727ZM10.5579 5.97301V6.75426H7.37612V5.97301H10.5579ZM12.4445 10H11.5212L14.1916 2.72727H15.1007L17.7712 10H16.8479L14.6746 3.87784H14.6178L12.4445 10ZM12.7854 7.15909H16.507V7.94034H12.7854V7.15909ZM19.4154 4.54545L20.7222 6.77557L22.029 4.54545H22.9949L21.2335 7.27273L22.9949 10H22.029L20.7222 7.88352L19.4154 10H18.4495L20.1824 7.27273L18.4495 4.54545H19.4154ZM24.1908 10V4.54545H25.0288V10H24.1908ZM24.6169 3.63636C24.4535 3.63636 24.3127 3.58073 24.1943 3.46946C24.0783 3.35819 24.0203 3.22443 24.0203 3.06818C24.0203 2.91193 24.0783 2.77817 24.1943 2.6669C24.3127 2.55563 24.4535 2.5 24.6169 2.5C24.7802 2.5 24.9199 2.55563 25.0359 2.6669C25.1543 2.77817 25.2135 2.91193 25.2135 3.06818C25.2135 3.22443 25.1543 3.35819 25.0359 3.46946C24.9199 3.58073 24.7802 3.63636 24.6169 3.63636ZM30.4274 5.76705L29.6746 5.98011C29.6272 5.85464 29.5574 5.73272 29.4651 5.61435C29.3751 5.49361 29.252 5.39418 29.0958 5.31605C28.9395 5.23793 28.7395 5.19886 28.4956 5.19886C28.1618 5.19886 27.8836 5.2758 27.6611 5.42969C27.4409 5.5812 27.3308 5.77415 27.3308 6.00852C27.3308 6.21686 27.4066 6.38139 27.5581 6.50213C27.7096 6.62287 27.9464 6.72348 28.2683 6.80398L29.078 7.00284C29.5657 7.12121 29.9291 7.30232 30.1682 7.54616C30.4073 7.78764 30.5269 8.09896 30.5269 8.48011C30.5269 8.79261 30.4369 9.07197 30.257 9.31818C30.0794 9.56439 29.8308 9.75852 29.5112 9.90057C29.1916 10.0426 28.82 10.1136 28.3962 10.1136C27.8398 10.1136 27.3794 9.9929 27.0148 9.75142C26.6502 9.50994 26.4194 9.1572 26.3223 8.69318L27.1178 8.49432C27.1935 8.78788 27.3368 9.00805 27.5475 9.15483C27.7605 9.30161 28.0387 9.375 28.382 9.375C28.7726 9.375 29.0827 9.29214 29.3124 9.12642C29.5444 8.95833 29.6604 8.7571 29.6604 8.52273C29.6604 8.33333 29.5941 8.17472 29.4615 8.04688C29.3289 7.91667 29.1254 7.8196 28.8507 7.75568L27.9416 7.54261C27.4421 7.42424 27.0752 7.24077 26.8408 6.99219C26.6088 6.74124 26.4928 6.42756 26.4928 6.05114C26.4928 5.74337 26.5792 5.47112 26.752 5.23438C26.9272 4.99763 27.1651 4.81179 27.4658 4.67685C27.7688 4.5419 28.1121 4.47443 28.4956 4.47443C29.0354 4.47443 29.4592 4.5928 29.7669 4.82955C30.0771 5.06629 30.2972 5.37879 30.4274 5.76705Z" fill="#0035BC"/>
</svg>
