<svg width="31" height="39" viewBox="0 0 31 39" fill="none" xmlns="http://www.w3.org/2000/svg">
<line x1="0.871826" y1="0.5" x2="0.871826" y2="21.3737" stroke="#8C8C8C" stroke-linecap="round"/>
<line x1="1.87183" y1="20.811" x2="20.7455" y2="20.811" stroke="#0035BC" stroke-width="3" stroke-linecap="round"/>
<path d="M1.30682 29.0075L3.18182 32.0331H3.23864L5.11364 29.0075H6.15057L3.86364 32.6439L6.15057 36.2803H5.11364L3.23864 33.3115H3.18182L1.30682 36.2803H0.269886L2.61364 32.6439L0.269886 29.0075H1.30682ZM9.62447 32.2533V33.0345H6.44265V32.2533H9.62447ZM11.511 36.2803H10.5877L13.2582 29.0075H14.1673L16.8377 36.2803H15.9144L13.7411 30.1581H13.6843L11.511 36.2803ZM11.8519 33.4394H15.5735V34.2206H11.8519V33.4394ZM18.4819 30.8257L19.7887 33.0558L21.0955 30.8257H22.0614L20.3001 33.553L22.0614 36.2803H21.0955L19.7887 34.1638L18.4819 36.2803H17.516L19.2489 33.553L17.516 30.8257H18.4819ZM23.2573 36.2803V30.8257H24.0953V36.2803H23.2573ZM23.6834 29.9166C23.5201 29.9166 23.3792 29.861 23.2608 29.7497C23.1448 29.6385 23.0868 29.5047 23.0868 29.3485C23.0868 29.1922 23.1448 29.0584 23.2608 28.9472C23.3792 28.8359 23.5201 28.7803 23.6834 28.7803C23.8468 28.7803 23.9864 28.8359 24.1025 28.9472C24.2208 29.0584 24.28 29.1922 24.28 29.3485C24.28 29.5047 24.2208 29.6385 24.1025 29.7497C23.9864 29.861 23.8468 29.9166 23.6834 29.9166ZM29.494 32.0473L28.7411 32.2604C28.6938 32.1349 28.6239 32.013 28.5316 31.8946C28.4416 31.7739 28.3185 31.6744 28.1623 31.5963C28.006 31.5182 27.806 31.4791 27.5621 31.4791C27.2283 31.4791 26.9502 31.5561 26.7276 31.71C26.5075 31.8615 26.3974 32.0544 26.3974 32.2888C26.3974 32.4971 26.4731 32.6617 26.6246 32.7824C26.7762 32.9031 27.0129 33.0038 27.3349 33.0843L28.1445 33.2831C28.6322 33.4015 28.9956 33.5826 29.2347 33.8264C29.4738 34.0679 29.5934 34.3792 29.5934 34.7604C29.5934 35.0729 29.5034 35.3522 29.3235 35.5985C29.146 35.8447 28.8974 36.0388 28.5778 36.1808C28.2582 36.3229 27.8865 36.3939 27.4627 36.3939C26.9064 36.3939 26.4459 36.2732 26.0813 36.0317C25.7167 35.7902 25.4859 35.4375 25.3888 34.9735L26.1843 34.7746C26.2601 35.0682 26.4033 35.2883 26.614 35.4351C26.8271 35.5819 27.1052 35.6553 27.4485 35.6553C27.8391 35.6553 28.1493 35.5724 28.3789 35.4067C28.6109 35.2386 28.7269 35.0374 28.7269 34.803C28.7269 34.6136 28.6606 34.455 28.5281 34.3271C28.3955 34.1969 28.1919 34.0999 27.9173 34.036L27.0082 33.8229C26.5086 33.7045 26.1417 33.521 25.9073 33.2725C25.6753 33.0215 25.5593 32.7078 25.5593 32.3314C25.5593 32.0236 25.6457 31.7514 25.8185 31.5146C25.9937 31.2779 26.2317 31.0921 26.5323 30.9571C26.8353 30.8222 27.1786 30.7547 27.5621 30.7547C28.1019 30.7547 28.5257 30.8731 28.8335 31.1098C29.1436 31.3466 29.3638 31.6591 29.494 32.0473Z" fill="#0035BC"/>
</svg>
